<svg width="47" height="47" viewBox="0 0 47 47" fill="none" xmlns="http://www.w3.org/2000/svg">
<g filter="url(#filter0_d_4_2)">
<path d="M14.0994 31.9321C13.3522 31.1117 12.4445 29.4344 10.829 27.3982C9.91341 26.2464 7.6428 24.0777 6.96662 22.9762C6.37989 22.0027 6.44304 21.5662 6.58248 20.7596C6.8298 19.3244 8.52421 18.2069 10.3317 18.3578C11.6973 18.4697 12.8549 19.2536 13.8968 19.994C15.2967 20.986 15.9836 22.6682 16.7805 24.1875C16.9226 24.4585 17.0041 24.5328 16.9487 24.1968C16.763 23.0698 14.6683 12.9222 14.6443 12.806L14.643 12.7996L13.6446 7.9879C13.2599 6.13389 14.0795 3.96504 15.961 3.75254C17.8747 3.53641 19.6414 4.77247 20.1826 6.62063L21.2097 10.1278C21.2955 10.4206 21.3651 10.7154 21.4189 11.0157C21.6998 12.5815 22.6211 17.7297 22.6544 18.0796C22.6489 17.8979 22.6198 16.5119 22.5931 15.2192C22.5635 13.7849 23.4156 12.7033 24.8502 12.7033C28.3619 12.7033 29.8149 14.4364 29.8149 15.3478C29.8149 14.0255 31.7356 13.1022 32.9711 13.1022C34.7972 13.1022 36.0615 13.5104 36.4829 14.5341C36.9043 15.5577 37.1191 18.3992 37.1413 18.5009C37.2067 18.7999 37.3454 16.9765 38.2387 16.2632C39.7396 15.0649 42.0797 15.7546 42.3828 17.8906C42.4684 18.4941 42.488 19.6613 42.488 20.6668C42.488 21.8483 42.4565 22.559 42.3828 23.4137C42.3012 24.3278 42.075 26.3937 41.7461 27.3946C41.5238 28.0703 40.7963 29.5751 40.0699 30.5076C40.0438 30.5411 40.0187 30.5722 39.9923 30.6054C39.6735 31.0062 37.469 33.808 37.1835 35.0012C36.873 36.2855 36.9756 36.2946 36.9151 37.2064C36.8743 37.8203 37.0336 38.5655 37.1415 38.985C37.1856 39.1563 37.0701 39.3311 36.8939 39.3474C36.2508 39.4067 34.8427 39.5121 33.9867 39.3934C32.958 39.2494 32.9477 37.748 32.6188 37.2041C32.1663 36.4546 30.8571 36.2169 30.4808 36.7699C29.8888 37.6452 28.6154 39.2151 27.7156 39.3134C26.0277 39.4978 22.5973 39.3934 19.7995 39.3625C19.622 39.3606 19.4882 39.1973 19.5112 39.0214C19.5991 38.3501 19.6868 36.861 18.8594 36.2557C18.057 35.6639 17.1146 34.6676 16.2885 34.0368L14.0994 31.9321Z" fill="white"/>
<path d="M29.8149 15.3478C29.8149 14.4364 28.3619 12.7033 24.8502 12.7033V12.7033C23.4156 12.7033 22.5635 13.7849 22.5931 15.2192C22.6228 16.6545 22.6553 18.2048 22.6553 18.094C22.6553 17.9212 21.705 12.6104 21.4189 11.0157C21.3651 10.7154 21.2955 10.4206 21.2097 10.1278L20.1826 6.62063C19.6414 4.77247 17.8747 3.53641 15.961 3.75254V3.75254V3.75254C14.0795 3.96504 13.2599 6.13389 13.6446 7.9879L14.643 12.7996C14.6438 12.8032 14.6436 12.8024 14.6443 12.806C14.6683 12.9222 16.763 23.0698 16.9487 24.1968C17.0041 24.5328 16.9226 24.4585 16.7805 24.1875C15.9836 22.6682 15.2967 20.986 13.8968 19.994V19.994C12.8549 19.2536 11.6973 18.4697 10.3317 18.3578C8.52421 18.2069 6.8298 19.3244 6.58248 20.7596C6.44304 21.5662 6.37989 22.0027 6.96662 22.9762C7.6428 24.0777 9.91341 26.2464 10.829 27.3982C12.4445 29.4344 13.3522 31.1117 14.0994 31.9321L16.2885 34.0368C17.1146 34.6676 18.057 35.6639 18.8594 36.2557C19.6868 36.861 19.5991 38.3501 19.5112 39.0214C19.4882 39.1973 19.622 39.3606 19.7995 39.3625C22.5973 39.3934 26.0277 39.4978 27.7156 39.3134C28.6154 39.2151 29.8888 37.6452 30.4808 36.7699C30.8571 36.2169 32.1663 36.4546 32.6188 37.2041C32.9477 37.748 32.958 39.2494 33.9867 39.3934C34.8427 39.5121 36.2508 39.4067 36.8939 39.3473C37.0701 39.3311 37.1856 39.1563 37.1415 38.985C37.0336 38.5655 36.8743 37.8203 36.9151 37.2064C36.9756 36.2946 36.873 36.2855 37.1835 35.0012C37.469 33.808 39.6735 31.0062 39.9923 30.6054C40.0187 30.5722 40.0438 30.5411 40.0699 30.5076C40.7963 29.5751 41.5238 28.0703 41.7461 27.3946C42.075 26.3937 42.3012 24.3278 42.3828 23.4137C42.4565 22.559 42.488 21.8483 42.488 20.6668C42.488 19.6613 42.4684 18.4941 42.3828 17.8906C42.0797 15.7546 39.7396 15.0649 38.2387 16.2632C37.3454 16.9765 37.2067 18.7999 37.1413 18.5009C37.1191 18.3992 36.9043 15.5577 36.4829 14.5341C36.0615 13.5104 34.7972 13.1022 32.9711 13.1022C31.7356 13.1022 29.8149 14.0255 29.8149 15.3478ZM29.8149 15.3478C29.8149 16.2194 29.836 16.9736 29.8608 17.574C29.9231 19.0838 29.8149 17.6643 29.8149 16.1532C29.8149 15.8451 29.8149 15.5619 29.8149 15.3478Z" stroke="black" stroke-width="2.19485"/>
</g>
<path d="M34.727 32.5372L34.727 24.8071" stroke="black" stroke-width="1.96658" stroke-linecap="round"/>
<path d="M29.6788 32.5167V24.7908" stroke="black" stroke-width="1.96658" stroke-linecap="round"/>
<path d="M24.5648 24.5873V32.3133" stroke="black" stroke-width="1.96658" stroke-linecap="round"/>
<defs>
<filter id="filter0_d_4_2" x="0.334" y="0.382893" width="46.6227" height="46.3423" filterUnits="userSpaceOnUse" color-interpolation-filters="sRGB">
<feFlood flood-opacity="0" result="BackgroundImageFix"/>
<feColorMatrix in="SourceAlpha" type="matrix" values="0 0 0 0 0 0 0 0 0 0 0 0 0 0 0 0 0 0 127 0" result="hardAlpha"/>
<feOffset dx="-0.842822" dy="1.96658"/>
<feGaussianBlur stdDeviation="2.10705"/>
<feColorMatrix type="matrix" values="0 0 0 0 0 0 0 0 0 0 0 0 0 0 0 0 0 0 0.3 0"/>
<feBlend mode="normal" in2="BackgroundImageFix" result="effect1_dropShadow_4_2"/>
<feBlend mode="normal" in="SourceGraphic" in2="effect1_dropShadow_4_2" result="shape"/>
</filter>
</defs>
</svg>
