<svg width="63" height="63" viewBox="0 0 63 63" fill="none" xmlns="http://www.w3.org/2000/svg">
<g filter="url(#filter0_d_4_2)">
<path d="M18.6366 42.427C17.6403 41.3332 16.43 39.0967 14.276 36.3818C13.0552 34.8461 10.0277 31.9545 9.12615 30.4859C8.34384 29.1878 8.42804 28.6059 8.61397 27.5303C8.94373 25.6168 11.2029 24.1268 13.613 24.3279C15.4337 24.4772 16.9772 25.5223 18.3664 26.5095C20.2329 27.8322 21.1487 30.0751 22.2113 32.1009C22.4008 32.4622 22.5095 32.5613 22.4356 32.1132C22.188 30.6106 19.3951 17.0804 19.3631 16.9255L19.3613 16.9169L18.0302 10.5014C17.5173 8.02939 18.61 5.13758 21.1187 4.85424C23.6702 4.56608 26.0258 6.21415 26.7475 8.67837L28.1169 13.3546C28.2313 13.745 28.3241 14.1381 28.3959 14.5385C28.7704 16.6262 29.9987 23.4905 30.0432 23.957C30.0358 23.7147 29.9971 21.8667 29.9615 20.1432C29.922 18.2308 31.0581 16.7885 32.9709 16.7885C37.6532 16.7885 39.5905 19.0995 39.5905 20.3146C39.5905 18.5516 42.1515 17.3205 43.7988 17.3205C46.2336 17.3205 47.9193 17.8648 48.4811 19.2296C49.043 20.5945 49.3294 24.3831 49.3591 24.5187C49.4463 24.9174 49.6311 22.4862 50.8223 21.5351C52.8235 19.9374 55.9436 20.857 56.3477 23.705C56.4619 24.5097 56.488 26.066 56.488 27.4067C56.488 28.982 56.4459 29.9296 56.3477 31.0691C56.239 32.2879 55.9373 35.0424 55.4988 36.377C55.2024 37.2779 54.2324 39.2843 53.2638 40.5276C53.229 40.5723 53.1956 40.6138 53.1603 40.6581C52.7353 41.1925 49.7959 44.9282 49.4153 46.5191C49.0013 48.2315 49.1382 48.2437 49.0575 49.4594C49.003 50.278 49.2155 51.2715 49.3593 51.8308C49.4181 52.0593 49.2641 52.2923 49.0292 52.314C48.1717 52.3931 46.2943 52.5337 45.153 52.3754C43.7813 52.1834 43.7676 50.1815 43.3291 49.4564C42.7257 48.4569 40.9801 48.1401 40.4784 48.8774C39.6891 50.0444 37.9912 52.1377 36.7914 52.2687C34.5409 52.5145 29.9671 52.3753 26.2366 52.3342C26 52.3316 25.8216 52.1139 25.8523 51.8793C25.9695 50.9843 26.0863 48.9988 24.9832 48.1919C23.9133 47.4027 22.6568 46.0743 21.5553 45.2333L18.6366 42.427Z" fill="white"/>
<path d="M39.5905 20.3146C39.5905 19.0995 37.6532 16.7885 32.9709 16.7885V16.7885C31.0581 16.7885 29.922 18.2308 29.9615 20.1432C30.001 22.0568 30.0444 24.1239 30.0444 23.9762C30.0444 23.7458 28.7773 16.6647 28.3959 14.5385C28.3241 14.1381 28.2313 13.745 28.1169 13.3546L26.7475 8.67837C26.0258 6.21415 23.6702 4.56608 21.1187 4.85424V4.85424V4.85424C18.61 5.13758 17.5173 8.02939 18.0302 10.5014L19.3613 16.9169C19.3623 16.9217 19.3621 16.9207 19.3631 16.9255C19.3951 17.0804 22.188 30.6106 22.4356 32.1132C22.5095 32.5613 22.4008 32.4622 22.2113 32.1009C21.1487 30.0751 20.2329 27.8322 18.3664 26.5095V26.5095C16.9772 25.5223 15.4337 24.4772 13.613 24.3279C11.2029 24.1268 8.94373 25.6168 8.61397 27.5303C8.42804 28.6059 8.34384 29.1878 9.12615 30.4859C10.0277 31.9545 13.0552 34.8461 14.276 36.3818C16.43 39.0967 17.6403 41.3332 18.6366 42.427L21.5553 45.2333C22.6568 46.0743 23.9133 47.4027 24.9832 48.1919C26.0863 48.9988 25.9695 50.9843 25.8523 51.8793C25.8216 52.1139 26 52.3316 26.2366 52.3342C29.9671 52.3753 34.5409 52.5146 36.7914 52.2687C37.9912 52.1377 39.6891 50.0444 40.4784 48.8774C40.9801 48.1401 42.7257 48.4569 43.3291 49.4564C43.7676 50.1815 43.7813 52.1834 45.153 52.3754C46.2943 52.5337 48.1717 52.3931 49.0292 52.314C49.2641 52.2923 49.4181 52.0593 49.3593 51.8308C49.2155 51.2715 49.003 50.278 49.0575 49.4594C49.1382 48.2437 49.0013 48.2315 49.4153 46.5191C49.7959 44.9282 52.7353 41.1925 53.1603 40.6581C53.1956 40.6138 53.229 40.5723 53.2638 40.5276C54.2324 39.2843 55.2024 37.2779 55.4988 36.377C55.9373 35.0424 56.239 32.2879 56.3477 31.0691C56.4459 29.9296 56.488 28.982 56.488 27.4067C56.488 26.066 56.4619 24.5097 56.3477 23.705C55.9436 20.857 52.8235 19.9374 50.8223 21.5351C49.6311 22.4862 49.4463 24.9174 49.3591 24.5187C49.3294 24.3831 49.043 20.5945 48.4811 19.2296C47.9193 17.8648 46.2336 17.3205 43.7988 17.3205C42.1515 17.3205 39.5905 18.5516 39.5905 20.3146ZM39.5905 20.3146C39.5905 21.4767 39.6186 22.4823 39.6517 23.2829C39.7348 25.2959 39.5905 23.4032 39.5905 21.3885C39.5905 20.9777 39.5905 20.6 39.5905 20.3146Z" stroke="black" stroke-width="2.92646"/>
</g>
<path d="M46.14 43.2338L46.14 32.9269" stroke="black" stroke-width="2.62211" stroke-linecap="round"/>
<path d="M39.4091 43.2065V32.9052" stroke="black" stroke-width="2.62211" stroke-linecap="round"/>
<path d="M32.5904 32.634V42.9353" stroke="black" stroke-width="2.62211" stroke-linecap="round"/>
<defs>
<filter id="filter0_d_4_2" x="0.282664" y="0.361379" width="62.1636" height="61.7898" filterUnits="userSpaceOnUse" color-interpolation-filters="sRGB">
<feFlood flood-opacity="0" result="BackgroundImageFix"/>
<feColorMatrix in="SourceAlpha" type="matrix" values="0 0 0 0 0 0 0 0 0 0 0 0 0 0 0 0 0 0 127 0" result="hardAlpha"/>
<feOffset dx="-1.12376" dy="2.62211"/>
<feGaussianBlur stdDeviation="2.80941"/>
<feColorMatrix type="matrix" values="0 0 0 0 0 0 0 0 0 0 0 0 0 0 0 0 0 0 0.3 0"/>
<feBlend mode="normal" in2="BackgroundImageFix" result="effect1_dropShadow_4_2"/>
<feBlend mode="normal" in="SourceGraphic" in2="effect1_dropShadow_4_2" result="shape"/>
</filter>
</defs>
</svg>
