<svg width="26" height="27" viewBox="0 0 26 27" fill="none" xmlns="http://www.w3.org/2000/svg">
<g filter="url(#filter0_d_4_2)">
<path d="M7.71659 18.2723C7.30146 17.8165 6.79718 16.8846 5.89969 15.7534C5.39102 15.1135 4.12957 13.9087 3.75392 13.2968C3.42796 12.7559 3.46304 12.5134 3.54051 12.0653C3.67791 11.268 4.61924 10.6471 5.62343 10.7309C6.38205 10.7931 7.0252 11.2286 7.60404 11.64C8.38172 12.1911 8.76333 13.1256 9.20606 13.9697C9.28501 14.1202 9.3303 14.1615 9.29953 13.9748C9.19634 13.3487 8.03264 7.71118 8.01931 7.64661L8.01858 7.64305L7.46393 4.96991C7.25021 3.9399 7.70552 2.73498 8.75081 2.61693C9.81394 2.49686 10.7954 3.18356 11.0961 4.21031L11.6667 6.15874C11.7144 6.32139 11.7531 6.4852 11.783 6.65202C11.939 7.5219 12.4508 10.382 12.4693 10.5764C12.4663 10.4755 12.4501 9.70545 12.4353 8.98731C12.4189 8.19049 12.8922 7.58955 13.6892 7.58955C15.6402 7.58955 16.4474 8.55243 16.4474 9.05873C16.4474 8.32414 17.5145 7.81118 18.2009 7.81118C19.2154 7.81118 19.9177 8.03799 20.1518 8.60667C20.386 9.17535 20.5053 10.7539 20.5176 10.8104C20.554 10.9766 20.631 9.96356 21.1273 9.5673C21.9611 8.90157 23.2612 9.28476 23.4296 10.4714C23.4771 10.8067 23.488 11.4552 23.488 12.0138C23.488 12.6701 23.4705 13.065 23.4296 13.5398C23.3843 14.0476 23.2586 15.1953 23.0758 15.7514C22.9524 16.1268 22.5482 16.9628 22.1446 17.4808C22.1301 17.4995 22.1162 17.5167 22.1015 17.5352C21.9244 17.7579 20.6997 19.3144 20.5411 19.9773C20.3686 20.6908 20.4256 20.6958 20.392 21.2024C20.3693 21.5435 20.4578 21.9575 20.5177 22.1905C20.5422 22.2857 20.4781 22.3828 20.3802 22.3918C20.0229 22.4248 19.2406 22.4834 18.7651 22.4174C18.1936 22.3374 18.1879 21.5033 18.0051 21.2011C17.7537 20.7847 17.0264 20.6527 16.8174 20.9599C16.4885 21.4462 15.781 22.3184 15.2811 22.373C14.3434 22.4754 12.4376 22.4174 10.8833 22.4003C10.7847 22.3992 10.7104 22.3085 10.7231 22.2107C10.772 21.8378 10.8207 21.0105 10.361 20.6743C9.91522 20.3454 9.3917 19.7919 8.93272 19.4415L7.71659 18.2723Z" fill="white"/>
<path d="M16.4474 9.05873C16.4474 8.55243 15.6402 7.58955 13.6892 7.58955V7.58955C12.8922 7.58955 12.4189 8.19049 12.4353 8.98731C12.4518 9.78466 12.4699 10.646 12.4699 10.5844C12.4699 10.4884 11.9419 7.53797 11.783 6.65202C11.7531 6.4852 11.7144 6.32139 11.6667 6.15874L11.0961 4.21031C10.7954 3.18356 9.81394 2.49686 8.75081 2.61693V2.61693V2.61693C7.70552 2.73498 7.25021 3.9399 7.46393 4.96991L8.01858 7.64305C8.01899 7.64505 8.0189 7.64461 8.01931 7.64661C8.03264 7.71118 9.19634 13.3487 9.29953 13.9748C9.3303 14.1615 9.28501 14.1202 9.20606 13.9697C8.76333 13.1256 8.38172 12.1911 7.60404 11.64V11.64C7.0252 11.2286 6.38205 10.7931 5.62343 10.7309C4.61924 10.6471 3.67791 11.268 3.54051 12.0653C3.46304 12.5134 3.42796 12.7559 3.75392 13.2968C4.12957 13.9087 5.39102 15.1135 5.89969 15.7534C6.79718 16.8846 7.30146 17.8165 7.71659 18.2723L8.93272 19.4415C9.3917 19.7919 9.91522 20.3454 10.361 20.6743C10.8207 21.0105 10.772 21.8378 10.7231 22.2107C10.7103 22.3085 10.7847 22.3992 10.8833 22.4003C12.4376 22.4174 14.3434 22.4754 15.2811 22.373C15.781 22.3184 16.4885 21.4462 16.8174 20.9599C17.0264 20.6527 17.7537 20.7847 18.0051 21.2011C18.1879 21.5033 18.1936 22.3374 18.7651 22.4174C19.2406 22.4834 20.0229 22.4248 20.3802 22.3918C20.4781 22.3828 20.5422 22.2857 20.5177 22.1905C20.4578 21.9575 20.3693 21.5435 20.392 21.2024C20.4256 20.6958 20.3686 20.6908 20.5411 19.9773C20.6997 19.3144 21.9244 17.7579 22.1015 17.5352C22.1162 17.5167 22.1301 17.4995 22.1446 17.4808C22.5482 16.9628 22.9524 16.1268 23.0758 15.7514C23.2586 15.1953 23.3843 14.0476 23.4296 13.5398C23.4705 13.065 23.488 12.6701 23.488 12.0138C23.488 11.4552 23.4771 10.8067 23.4296 10.4714C23.2612 9.28476 21.9611 8.90157 21.1273 9.5673C20.631 9.96356 20.554 10.9766 20.5176 10.8104C20.5053 10.7539 20.3859 9.17536 20.1518 8.60667C19.9177 8.03799 19.2154 7.81118 18.2009 7.81118C17.5145 7.81118 16.4474 8.32414 16.4474 9.05873ZM16.4474 9.05873C16.4474 9.54296 16.4591 9.96197 16.4729 10.2955C16.5075 11.1343 16.4474 10.3457 16.4474 9.5062C16.4474 9.33503 16.4474 9.17767 16.4474 9.05873Z" stroke="black" stroke-width="1.21936"/>
</g>
<path d="M19.1763 18.6084L19.1763 14.3139" stroke="black" stroke-width="1.09255" stroke-linecap="round"/>
<path d="M16.3718 18.597V14.3048" stroke="black" stroke-width="1.09255" stroke-linecap="round"/>
<path d="M13.5307 14.1918V18.484" stroke="black" stroke-width="1.09255" stroke-linecap="round"/>
<defs>
<filter id="filter0_d_4_2" x="0.0691345" y="0.744906" width="25.9015" height="25.7457" filterUnits="userSpaceOnUse" color-interpolation-filters="sRGB">
<feFlood flood-opacity="0" result="BackgroundImageFix"/>
<feColorMatrix in="SourceAlpha" type="matrix" values="0 0 0 0 0 0 0 0 0 0 0 0 0 0 0 0 0 0 127 0" result="hardAlpha"/>
<feOffset dx="-0.468234" dy="1.09255"/>
<feGaussianBlur stdDeviation="1.17059"/>
<feColorMatrix type="matrix" values="0 0 0 0 0 0 0 0 0 0 0 0 0 0 0 0 0 0 0.3 0"/>
<feBlend mode="normal" in2="BackgroundImageFix" result="effect1_dropShadow_4_2"/>
<feBlend mode="normal" in="SourceGraphic" in2="effect1_dropShadow_4_2" result="shape"/>
</filter>
</defs>
</svg>
